<svg width="40" height="40" viewBox="0 0 40 40" fill="none" xmlns="http://www.w3.org/2000/svg">
<path d="M32.0982 25.6916L28.9724 22.5658L32.0982 19.44C32.9193 18.6189 33.5707 17.6441 34.015 16.5712C34.4594 15.4984 34.6882 14.3485 34.6882 13.1873C34.6882 12.0261 34.4594 10.8762 34.015 9.80335C33.5707 8.7305 32.9193 7.7557 32.0982 6.93458C31.2771 6.11346 30.3023 5.46211 29.2294 5.01773C28.1566 4.57334 27.0067 4.34462 25.8455 4.34462C24.6842 4.34462 23.5344 4.57334 22.4615 5.01773C21.3887 5.46211 20.4139 6.11346 19.5928 6.93458L16.467 10.0604L13.3412 6.93458L16.467 3.80877C18.9612 1.35481 22.3241 -0.0141375 25.8231 0.000110109C29.3221 0.0143577 32.6737 1.41065 35.1479 3.88484C37.6221 6.35903 39.0184 9.71066 39.0327 13.2097C39.0469 16.7087 37.678 20.0716 35.224 22.5658L32.0982 25.6916ZM25.8444 31.9454L22.7186 35.0712C21.4906 36.3194 20.0277 37.312 18.4142 37.9919C16.8007 38.6718 15.0686 39.0255 13.3177 39.0327C11.5668 39.0398 9.83182 38.7002 8.21284 38.0334C6.59386 37.3667 5.12291 36.386 3.88484 35.1479C2.64677 33.9099 1.66607 32.4389 0.999328 30.8199C0.332583 29.201 -0.00701947 27.466 0.000109967 25.7151C0.0072394 23.9642 0.360959 22.2321 1.04087 20.6186C1.72077 19.0051 2.71341 17.5422 3.96153 16.3142L7.08733 13.1884L10.2131 16.3142L7.08733 19.44C6.26622 20.2611 5.61487 21.2359 5.17048 22.3088C4.7261 23.3816 4.49737 24.5315 4.49737 25.6927C4.49737 26.854 4.7261 28.0038 5.17048 29.0767C5.61487 30.1495 6.26622 31.1243 7.08733 31.9454C7.90845 32.7666 8.88326 33.4179 9.9561 33.8623C11.0289 34.3067 12.1788 34.5354 13.34 34.5354C14.5013 34.5354 15.6512 34.3067 16.724 33.8623C17.7968 33.4179 18.7716 32.7666 19.5928 31.9454L22.7186 28.8196L25.8444 31.9454ZM25.8444 10.0604L28.9724 13.1884L13.3412 28.8174L10.2131 25.6916L25.8444 10.0626V10.0604Z" fill="white"/>
</svg>
