<svg width="45" height="40" viewBox="0 0 45 40" fill="none" xmlns="http://www.w3.org/2000/svg">
<path d="M2.21061 0H42.0016C42.5879 0 43.1502 0.232903 43.5648 0.647473C43.9793 1.06204 44.2122 1.62432 44.2122 2.21061V37.5804C44.2122 38.1667 43.9793 38.729 43.5648 39.1435C43.1502 39.5581 42.5879 39.791 42.0016 39.791H2.21061C1.62432 39.791 1.06204 39.5581 0.647473 39.1435C0.232903 38.729 0 38.1667 0 37.5804V2.21061C0 1.62432 0.232903 1.06204 0.647473 0.647473C1.06204 0.232903 1.62432 0 2.21061 0ZM22.2388 19.1947L8.06431 7.15796L5.20157 10.5269L22.2675 25.0175L39.0261 10.5159L36.1347 7.17123L22.241 19.1947H22.2388Z" fill="white"/>
</svg>
