<svg width="45" height="44" viewBox="0 0 45 44" fill="none" xmlns="http://www.w3.org/2000/svg">
<path d="M22.1061 0C9.89249 0 3.22648e-06 9.89249 3.22648e-06 22.1061C-0.00250409 26.7468 1.45638 31.2704 4.16969 35.0353C6.883 38.8001 10.7129 41.6149 15.1162 43.0804C16.2215 43.2727 16.6349 42.6095 16.6349 42.0281C16.6349 41.5042 16.6061 39.7645 16.6061 37.912C11.0531 38.9355 9.61617 36.5591 9.17404 35.3145C8.92424 34.6779 7.84768 32.7171 6.90817 32.1909C6.13445 31.7775 5.02915 30.754 6.87943 30.7275C8.62139 30.6988 9.86375 32.3302 10.2793 32.9934C12.2689 36.3358 15.4478 35.3963 16.7167 34.8171C16.9112 33.3802 17.4904 32.4142 18.127 31.8615C13.2084 31.3089 8.06874 29.4011 8.06874 20.9455C8.06874 18.5404 8.92424 16.5531 10.3346 15.0034C10.1136 14.4508 9.33984 12.1849 10.5557 9.1453C10.5557 9.1453 12.406 8.56612 16.6349 11.4134C18.4344 10.9139 20.2938 10.6625 22.1614 10.6662C24.0404 10.6662 25.9194 10.9138 27.6879 11.4112C31.9146 8.53738 33.7671 9.14751 33.7671 9.14751C34.9829 12.1871 34.2092 14.453 33.9882 15.0056C35.3963 16.5531 36.254 18.5139 36.254 20.9455C36.254 29.4299 31.0878 31.3089 26.1692 31.8615C26.9695 32.5513 27.6614 33.8776 27.6614 35.9512C27.6614 38.9068 27.6327 41.2832 27.6327 42.0304C27.6327 42.6095 28.0483 43.2993 29.1536 43.0782C33.5417 41.5966 37.3547 38.7763 40.0561 35.0142C42.7574 31.2521 44.211 26.7376 44.2122 22.1061C44.2122 9.89249 34.3198 0 22.1061 0Z" fill="white"/>
</svg>
